<?xml version="1.0" encoding="UTF-8" standalone="no" ?>
<!DOCTYPE svg PUBLIC "-//W3C//DTD SVG 1.1//EN" "http://www.w3.org/Graphics/SVG/1.1/DTD/svg11.dtd">
<svg xmlns="http://www.w3.org/2000/svg" xmlns:xlink="http://www.w3.org/1999/xlink" version="1.1" width="1080" height="1080" viewBox="0 0 1080 1080" xml:space="preserve">
<desc>Created with Fabric.js 5.2.4</desc>
<defs>
</defs>
<g transform="matrix(1 0 0 1 540 540)" id="3856e6ca-b41b-4d36-890b-d4e120a20473"  >
<rect style="stroke: none; stroke-width: 1; stroke-dasharray: none; stroke-linecap: butt; stroke-dashoffset: 0; stroke-linejoin: miter; stroke-miterlimit: 4; fill: rgb(255,255,255); fill-rule: nonzero; opacity: 1; visibility: hidden;" vector-effect="non-scaling-stroke"  x="-540" y="-540" rx="0" ry="0" width="1080" height="1080" />
</g>
<g transform="matrix(1 0 0 1 540 540)" id="07585c40-a039-41e0-bf9b-0fa1abd0b55e"  >
</g>
<g transform="matrix(1 0 0 1 540 540)"  >
<g style="" vector-effect="non-scaling-stroke"   >
		<g transform="matrix(1 0 0 1 0 0)"  >
<rect style="stroke: none; stroke-width: 1; stroke-dasharray: none; stroke-linecap: butt; stroke-dashoffset: 0; stroke-linejoin: miter; stroke-miterlimit: 4; fill: rgb(255,255,255); fill-rule: evenodd; opacity: 1;" vector-effect="non-scaling-stroke"  x="-1000" y="-1000" rx="0" ry="0" width="2000" height="2000" />
</g>
		<g transform="matrix(1 0 0 1 71.4 -260.05)" clip-path="url(#CLIPPATH_14)"  >
<linearGradient id="SVGID_SVGID_00000120532212367210166120000010045791263577825188__3" gradientUnits="userSpaceOnUse" gradientTransform="matrix(1 0 0 1 -1071.4 -739.95)"  x1="1268.9097" y1="1017.5954" x2="765.9095" y2="310.5114">
<stop offset="0%" style="stop-color:rgb(4,83,4);stop-opacity: 1"/>
<stop offset="24.279999999999998%" style="stop-color:rgb(27,107,6);stop-opacity: 1"/>
<stop offset="75.17%" style="stop-color:rgb(85,167,13);stop-opacity: 1"/>
<stop offset="100%" style="stop-color:rgb(115,199,16);stop-opacity: 1"/>
</linearGradient>
<clipPath id="CLIPPATH_14" >
	<path transform="matrix(1 0 0 1 0 0) translate(-1071.4, -739.95)" id="SVGID_00000115503863575539182190000002673975696811513274_" d="M 878.988 520.283 L 999.999 520.283 C 1066.556 520.283 1121.011 574.738 1121.011 641.294 L 1121.011 717.585 C 1113.517 848.855 1161.116 929.529 1263.805 959.6080000000001 C 1164.5320000000002 953.0490000000001 1070.251 910.7710000000001 999.038 839.557 C 927.825 768.345 885.546 674.063 878.988 574.789 L 878.988 520.283 z" stroke-linecap="round" />
</clipPath>
<rect style="stroke: none; stroke-width: 1; stroke-dasharray: none; stroke-linecap: butt; stroke-dashoffset: 0; stroke-linejoin: miter; stroke-miterlimit: 4; fill: url(#SVGID_SVGID_00000120532212367210166120000010045791263577825188__3); fill-rule: nonzero; opacity: 1;" vector-effect="non-scaling-stroke"  x="-192.4085" y="-219.663" rx="0" ry="0" width="384.817" height="439.326" />
</g>
		<g transform="matrix(1 0 0 1 40.51 -265.94)" clip-path="url(#CLIPPATH_15)"  >
<linearGradient id="SVGID_SVGID_00000005983085461276891910000003541893363989647789__4" gradientUnits="userSpaceOnUse" gradientTransform="matrix(1 0 0 1 -1040.51 -734.06)"  x1="1251.1779" y1="1030.209" x2="748.1767" y2="323.1236">
<stop offset="0%" style="stop-color:rgb(4,83,4);stop-opacity: 1"/>
<stop offset="24.83%" style="stop-color:rgb(34,115,7);stop-opacity: 1"/>
<stop offset="75.72%" style="stop-color:rgb(92,175,14);stop-opacity: 1"/>
<stop offset="100%" style="stop-color:rgb(115,199,16);stop-opacity: 1"/>
</linearGradient>
<clipPath id="CLIPPATH_15" >
	<path transform="matrix(1 0 0 1 0 0) translate(-1040.51, -734.06)" id="SVGID_00000098211802991119469360000005478571823920194208_" d="M 890.062 531.357 L 890.062 574.422 C 896.561 671.457 938.054 762.912 1006.868 831.726 C 1058.048 882.904 1121.748 918.972 1190.953 936.77 C 1049.838 853.896 974.024 692.932 999.999 531.357 L 890.062 531.357 z" stroke-linecap="round" />
</clipPath>
<rect style="stroke: none; stroke-width: 1; stroke-dasharray: none; stroke-linecap: butt; stroke-dashoffset: 0; stroke-linejoin: miter; stroke-miterlimit: 4; fill: url(#SVGID_SVGID_00000005983085461276891910000003541893363989647789__4); fill-rule: nonzero; opacity: 1;" vector-effect="non-scaling-stroke"  x="-150.446" y="-202.7065" rx="0" ry="0" width="300.892" height="405.413" />
</g>
		<g transform="matrix(1 0 0 1 215.92 -161.4)" clip-path="url(#CLIPPATH_16)"  >
<linearGradient id="SVGID_SVGID_00000098189706096475788290000017008075357219096711__5" gradientUnits="userSpaceOnUse" gradientTransform="matrix(1 0 0 1 -1215.92 -838.6)"  x1="938.393" y1="763.5617" x2="1579.0176" y2="936.7694">
<stop offset="0%" style="stop-color:rgb(1,49,184);stop-opacity: 1"/>
<stop offset="28.37%" style="stop-color:rgb(6,81,200);stop-opacity: 1"/>
<stop offset="90.35%" style="stop-color:rgb(19,162,240);stop-opacity: 1"/>
<stop offset="100%" style="stop-color:rgb(21,175,247);stop-opacity: 1"/>
</linearGradient>
<clipPath id="CLIPPATH_16" >
	<path transform="matrix(1 0 0 1 3.36 0) translate(-1219.28, -838.6)" id="SVGID_00000140012850829752851200000011224620284365443488_" d="M 1121.011 717.585 C 1113.517 848.855 1161.116 929.529 1263.805 959.6080000000001 L 1318.313 959.6080000000001 L 1318.313 838.596 C 1318.313 772.039 1263.8580000000002 717.585 1197.3010000000002 717.585 L 1121.011 717.585 z" stroke-linecap="round" />
</clipPath>
<rect style="stroke: none; stroke-width: 1; stroke-dasharray: none; stroke-linecap: butt; stroke-dashoffset: 0; stroke-linejoin: miter; stroke-miterlimit: 4; fill: url(#SVGID_SVGID_00000098189706096475788290000017008075357219096711__5); fill-rule: nonzero; opacity: 1;" vector-effect="non-scaling-stroke"  x="-102.398" y="-121.0115" rx="0" ry="0" width="204.796" height="242.023" />
</g>
		<g transform="matrix(1 0 0 1 188.66 -161.4)" clip-path="url(#CLIPPATH_17)"  >
<linearGradient id="SVGID_SVGID_00000109716670479927056690000016438255213191632274__6" gradientUnits="userSpaceOnUse" gradientTransform="matrix(1 0 0 1 -1188.66 -838.6)"  x1="936.5366" y1="770.4285" x2="1577.1616" y2="943.6364">
<stop offset="0%" style="stop-color:rgb(1,49,184);stop-opacity: 1"/>
<stop offset="17.380000000000003%" style="stop-color:rgb(2,53,186);stop-opacity: 1"/>
<stop offset="35.31%" style="stop-color:rgb(4,66,192);stop-opacity: 1"/>
<stop offset="53.49%" style="stop-color:rgb(7,86,203);stop-opacity: 1"/>
<stop offset="71.84%" style="stop-color:rgb(11,115,217);stop-opacity: 1"/>
<stop offset="90.14999999999999%" style="stop-color:rgb(17,152,235);stop-opacity: 1"/>
<stop offset="100%" style="stop-color:rgb(21,175,247);stop-opacity: 1"/>
</linearGradient>
<clipPath id="CLIPPATH_17" >
	<path transform="matrix(1 0 0 1 3.36 0) translate(-1192.03, -838.6)" id="SVGID_00000113334487430522737840000012544839729467384249_" d="M 1121.011 717.585 C 1113.517 848.855 1161.116 929.529 1263.805 959.6080000000001 C 1176.468 913.469 1132.948 812.8190000000001 1159.156 717.585 L 1121.011 717.585 z" stroke-linecap="round" />
</clipPath>
<rect style="stroke: none; stroke-width: 1; stroke-dasharray: none; stroke-linecap: butt; stroke-dashoffset: 0; stroke-linejoin: miter; stroke-miterlimit: 4; fill: url(#SVGID_SVGID_00000109716670479927056690000016438255213191632274__6); fill-rule: nonzero; opacity: 1;" vector-effect="non-scaling-stroke"  x="-75.144" y="-121.0115" rx="0" ry="0" width="150.288" height="242.023" />
</g>
		<g transform="matrix(1 0 0 1 -71.4 -12.6)" clip-path="url(#CLIPPATH_18)"  >
<linearGradient id="SVGID_SVGID_00000095307942875650370100000017427530655000719508__7" gradientUnits="userSpaceOnUse" gradientTransform="matrix(1 0 0 1 -928.6 -987.4)"  x1="731.1052" y1="709.7689" x2="1234.106" y2="1416.8539">
<stop offset="0%" style="stop-color:rgb(1,49,184);stop-opacity: 1"/>
<stop offset="22.62%" style="stop-color:rgb(5,73,196);stop-opacity: 1"/>
<stop offset="70.06%" style="stop-color:rgb(14,134,226);stop-opacity: 1"/>
<stop offset="100%" style="stop-color:rgb(21,175,247);stop-opacity: 1"/>
</linearGradient>
<clipPath id="CLIPPATH_18" >
	<path transform="matrix(1 0 0 1 0 0) translate(-928.6, -987.4)" id="SVGID_00000126298899630620554350000016993143340003468174_" d="M 1121.011 1207.06 L 999.999 1207.06 C 933.443 1207.06 878.988 1152.605 878.988 1086.049 L 878.988 1009.758 C 886.4810000000001 878.488 838.8820000000001 797.8140000000001 736.1930000000001 767.735 C 835.4660000000001 774.294 929.7470000000001 816.572 1000.961 887.7860000000001 C 1072.174 958.998 1114.453 1053.28 1121.011 1152.554 L 1121.011 1207.06 z" stroke-linecap="round" />
</clipPath>
<rect style="stroke: none; stroke-width: 1; stroke-dasharray: none; stroke-linecap: butt; stroke-dashoffset: 0; stroke-linejoin: miter; stroke-miterlimit: 4; fill: url(#SVGID_SVGID_00000095307942875650370100000017427530655000719508__7); fill-rule: nonzero; opacity: 1;" vector-effect="non-scaling-stroke"  x="-192.409" y="-219.663" rx="0" ry="0" width="384.818" height="439.326" />
</g>
		<g transform="matrix(1 0 0 1 -40.51 -6.72)" clip-path="url(#CLIPPATH_19)"  >
<linearGradient id="SVGID_SVGID_00000020388914463445947380000008803157303128954783__8" gradientUnits="userSpaceOnUse" gradientTransform="matrix(1 0 0 1 -959.49 -993.28)"  x1="748.8366" y1="697.1556" x2="1251.8378" y2="1404.2412">
<stop offset="0%" style="stop-color:rgb(1,49,184);stop-opacity: 1"/>
<stop offset="26.85%" style="stop-color:rgb(7,86,203);stop-opacity: 1"/>
<stop offset="76.51%" style="stop-color:rgb(17,150,234);stop-opacity: 1"/>
<stop offset="100%" style="stop-color:rgb(21,175,247);stop-opacity: 1"/>
</linearGradient>
<clipPath id="CLIPPATH_19" >
	<path transform="matrix(1 0 0 1 0 0) translate(-959.49, -993.28)" id="SVGID_00000152959919324697761750000016370778818021551018_" d="M 1109.937 1195.986 L 1109.937 1152.92 C 1103.4399999999998 1055.885 1061.945 964.4300000000001 993.1309999999999 895.6160000000001 C 941.9529999999999 844.4380000000001 878.2519999999998 808.3700000000001 809.0449999999998 790.5720000000001 C 950.1599999999999 873.4460000000001 1025.9759999999999 1034.409 999.9999999999999 1195.9850000000001 L 1109.937 1195.9850000000001 z" stroke-linecap="round" />
</clipPath>
<rect style="stroke: none; stroke-width: 1; stroke-dasharray: none; stroke-linecap: butt; stroke-dashoffset: 0; stroke-linejoin: miter; stroke-miterlimit: 4; fill: url(#SVGID_SVGID_00000020388914463445947380000008803157303128954783__8); fill-rule: nonzero; opacity: 1;" vector-effect="non-scaling-stroke"  x="-150.446" y="-202.7065" rx="0" ry="0" width="300.892" height="405.413" />
</g>
		<g transform="matrix(1 0 0 1 -215.92 -111.25)" clip-path="url(#CLIPPATH_20)"  >
<linearGradient id="SVGID_SVGID_00000144313444966542798760000005932973085202649760__9" gradientUnits="userSpaceOnUse" gradientTransform="matrix(1 0 0 1 -784.08 -888.75)"  x1="1061.6156" y1="963.7786" x2="420.9489" y2="790.5703">
<stop offset="0%" style="stop-color:rgb(4,83,4);stop-opacity: 1"/>
<stop offset="30.79%" style="stop-color:rgb(35,115,7);stop-opacity: 1"/>
<stop offset="98.13%" style="stop-color:rgb(113,197,16);stop-opacity: 1"/>
<stop offset="100%" style="stop-color:rgb(115,199,16);stop-opacity: 1"/>
</linearGradient>
<clipPath id="CLIPPATH_20" >
	<path transform="matrix(1 0 0 1 -3.36 0) translate(-780.72, -888.75)" id="SVGID_00000107554784899843808740000004824865499851351467_" d="M 878.988 1009.758 C 886.4810000000001 878.488 838.8820000000001 797.8140000000001 736.1930000000001 767.735 L 681.6850000000001 767.735 L 681.6850000000001 888.7470000000001 C 681.6850000000001 955.3040000000001 736.1400000000001 1009.758 802.6970000000001 1009.758 L 878.988 1009.758 z" stroke-linecap="round" />
</clipPath>
<rect style="stroke: none; stroke-width: 1; stroke-dasharray: none; stroke-linecap: butt; stroke-dashoffset: 0; stroke-linejoin: miter; stroke-miterlimit: 4; fill: url(#SVGID_SVGID_00000144313444966542798760000005932973085202649760__9); fill-rule: nonzero; opacity: 1;" vector-effect="non-scaling-stroke"  x="-102.398" y="-121.0115" rx="0" ry="0" width="204.796" height="242.023" />
</g>
		<g transform="matrix(1 0 0 1 -188.66 -111.25)" clip-path="url(#CLIPPATH_21)"  >
<linearGradient id="SVGID_SVGID_00000056389964056383792090000013115574886120522666__10" gradientUnits="userSpaceOnUse" gradientTransform="matrix(1 0 0 1 -811.34 -888.75)"  x1="1063.4719" y1="956.9122" x2="422.8058" y2="783.7041">
<stop offset="0%" style="stop-color:rgb(4,83,4);stop-opacity: 1"/>
<stop offset="18.04%" style="stop-color:rgb(8,87,4);stop-opacity: 1"/>
<stop offset="36.77%" style="stop-color:rgb(20,100,6);stop-opacity: 1"/>
<stop offset="55.81%" style="stop-color:rgb(40,120,8);stop-opacity: 1"/>
<stop offset="75.06%" style="stop-color:rgb(68,149,11);stop-opacity: 1"/>
<stop offset="94.31%" style="stop-color:rgb(103,187,15);stop-opacity: 1"/>
<stop offset="100%" style="stop-color:rgb(115,199,16);stop-opacity: 1"/>
</linearGradient>
<clipPath id="CLIPPATH_21" >
	<path transform="matrix(1 0 0 1 -3.36 0) translate(-807.97, -888.75)" id="SVGID_00000079453835153087442060000016817334018073941381_" d="M 878.988 1009.758 C 886.4810000000001 878.488 838.8820000000001 797.8140000000001 736.1930000000001 767.735 C 823.5300000000001 813.874 867.0500000000001 914.524 840.844 1009.758 L 878.988 1009.758 z" stroke-linecap="round" />
</clipPath>
<rect style="stroke: none; stroke-width: 1; stroke-dasharray: none; stroke-linecap: butt; stroke-dashoffset: 0; stroke-linejoin: miter; stroke-miterlimit: 4; fill: url(#SVGID_SVGID_00000056389964056383792090000013115574886120522666__10); fill-rule: nonzero; opacity: 1;" vector-effect="non-scaling-stroke"  x="-75.144" y="-121.0115" rx="0" ry="0" width="150.288" height="242.023" />
</g>
		<g transform="matrix(1 0 0 1 -220.33 -334.93)" clip-path="url(#CLIPPATH_22)"  >
<linearGradient id="SVGID_SVGID_00000098186454085821214050000006208526301589425570__11" gradientUnits="userSpaceOnUse" gradientTransform="matrix(1 0 0 1 -779.67 -665.07)"  x1="921.6719" y1="788.2465" x2="646.6725" y2="549.7051">
<stop offset="0%" style="stop-color:rgb(4,83,4);stop-opacity: 1"/>
<stop offset="41.3%" style="stop-color:rgb(47,128,9);stop-opacity: 1"/>
<stop offset="100%" style="stop-color:rgb(115,199,16);stop-opacity: 1"/>
</linearGradient>
<clipPath id="CLIPPATH_22" >
	<path transform="matrix(1 0 0 1 0 0) translate(-779.67, -665.07)" id="SVGID_00000051352530478827024440000002015630387147286181_" d="M 779.674 602.575 C 814.192 602.575 842.173 630.557 842.173 665.0740000000001 C 842.173 699.5920000000001 814.191 727.5730000000001 779.674 727.5730000000001 C 745.156 727.5730000000001 717.175 699.5910000000001 717.175 665.0740000000001 C 717.175 630.556 745.156 602.575 779.674 602.575" stroke-linecap="round" />
</clipPath>
<rect style="stroke: none; stroke-width: 1; stroke-dasharray: none; stroke-linecap: butt; stroke-dashoffset: 0; stroke-linejoin: miter; stroke-miterlimit: 4; fill: url(#SVGID_SVGID_00000098186454085821214050000006208526301589425570__11); fill-rule: nonzero; opacity: 1;" vector-effect="non-scaling-stroke"  x="-62.499" y="-62.4995" rx="0" ry="0" width="124.998" height="124.999" />
</g>
		<g transform="matrix(1 0 0 1 -220.33 -334.93)" clip-path="url(#CLIPPATH_23)"  >
<linearGradient id="SVGID_SVGID_00000006687460675051004420000013822273005339334579__12" gradientUnits="userSpaceOnUse" gradientTransform="matrix(1 0 0 1 -779.67 -665.07)"  x1="922.6723" y1="787.1457" x2="666.4221" y2="568.3957">
<stop offset="0%" style="stop-color:rgb(4,83,4);stop-opacity: 1"/>
<stop offset="58.709999999999994%" style="stop-color:rgb(72,154,11);stop-opacity: 1"/>
<stop offset="100%" style="stop-color:rgb(115,199,16);stop-opacity: 1"/>
</linearGradient>
<clipPath id="CLIPPATH_23" >
	<path transform="matrix(1 0 0 1 0 0) translate(-779.67, -665.07)" id="SVGID_00000065762265081944018660000012980939749830754210_" d="M 779.674 608.824 C 810.74 608.824 835.924 634.007 835.924 665.074 C 835.924 696.14 810.74 721.324 779.674 721.324 C 748.607 721.324 723.424 696.14 723.424 665.074 C 723.424 634.008 748.608 608.824 779.674 608.824" stroke-linecap="round" />
</clipPath>
<rect style="stroke: none; stroke-width: 1; stroke-dasharray: none; stroke-linecap: butt; stroke-dashoffset: 0; stroke-linejoin: miter; stroke-miterlimit: 4; fill: url(#SVGID_SVGID_00000006687460675051004420000013822273005339334579__12); fill-rule: nonzero; opacity: 1;" vector-effect="non-scaling-stroke"  x="-56.25" y="-56.25" rx="0" ry="0" width="112.5" height="112.5" />
</g>
		<g transform="matrix(1 0 0 1 0 336)"  >
<path style="stroke: none; stroke-width: 1; stroke-dasharray: none; stroke-linecap: butt; stroke-dashoffset: 0; stroke-linejoin: miter; stroke-miterlimit: 4; fill: rgb(25,26,28); fill-rule: nonzero; opacity: 1;" vector-effect="non-scaling-stroke"  transform=" translate(-1000, -1336)" d="M 1482.024 1365.423 L 1429.214 1365.423 L 1429.214 1344.191 L 1480.143 1344.191 L 1480.143 1327.664 L 1429.214 1327.664 L 1429.214 1305.895 L 1482.024 1305.895 L 1482.024 1288.693 L 1411.61 1288.693 C 1411.61 1320.093 1411.61 1351.5819999999999 1411.61 1382.892 L 1482.024 1382.892 L 1482.024 1365.423 z M 1357.019 1305.222 C 1368.174 1305.222 1373.146 1312.77 1373.146 1320.341 C 1373.146 1327.9099999999999 1368.307 1335.4579999999999 1357.019 1335.4579999999999 L 1330.01 1335.4579999999999 L 1330.01 1305.2219999999998 L 1357.019 1305.2219999999998 z M 1395.587 1381.683 L 1367.097 1349.568 C 1384.97 1345.94 1390.883 1332.905 1390.883 1319.9379999999999 C 1390.883 1303.6109999999999 1379.193 1288.829 1357.018 1288.694 C 1342.103 1288.829 1327.1870000000001 1288.694 1312.272 1288.694 L 1312.272 1382.893 L 1330.009 1382.893 L 1330.009 1351.448 L 1347.076 1351.448 L 1374.489 1382.893 L 1395.587 1382.893 L 1395.587 1381.683 z M 1260.773 1348.626 L 1225.8349999999998 1348.626 L 1243.3039999999999 1308.492 L 1260.773 1348.626 z M 1275.824 1382.893 L 1295.174 1382.893 L 1252.979 1288.694 L 1233.6290000000001 1288.694 L 1191.4350000000002 1382.893 L 1210.65 1382.893 L 1218.712 1365.155 L 1267.895 1365.155 L 1275.824 1382.893 z M 1174.2 1358.839 C 1168.02 1365.02 1158.746 1368.379 1150.551 1368.379 C 1127.3029999999999 1368.379 1118.301 1352.12 1118.166 1336.533 C 1118.031 1320.81 1127.84 1303.879 1150.551 1303.879 C 1158.7459999999999 1303.879 1167.079 1306.7009999999998 1173.261 1312.7479999999998 L 1185.085 1301.3259999999998 C 1175.409 1291.7859999999998 1163.316 1286.9489999999998 1150.551 1286.9489999999998 C 1116.5539999999999 1286.9489999999998 1100.5629999999999 1311.9419999999998 1100.696 1336.5339999999999 C 1100.831 1360.9889999999998 1115.6119999999999 1385.043 1150.551 1385.043 C 1164.1229999999998 1385.043 1176.619 1380.609 1186.2949999999998 1371.0669999999998 L 1174.2 1358.839 z M 1077.685 1382.893 L 1077.685 1288.9650000000001 L 1060.0819999999999 1288.9650000000001 L 1060.0819999999999 1328.6050000000002 L 1013.8559999999999 1328.6050000000002 L 1013.8559999999999 1288.9650000000001 L 996.1179999999999 1288.9650000000001 L 996.1179999999999 1382.893 L 1013.856 1382.893 L 1013.856 1344.998 L 1060.0819999999999 1344.998 L 1060.0819999999999 1382.893 L 1077.685 1382.893 z M 928.629 1382.893 L 946.366 1382.893 L 946.366 1304.82 L 976.199 1304.82 L 976.199 1288.695 C 948.92 1288.695 925.942 1288.695 898.7959999999999 1288.695 L 898.7959999999999 1304.82 L 928.6289999999999 1304.82 L 928.6289999999999 1382.893 z M 830.635 1288.694 L 830.635 1382.893 L 896.748 1382.893 L 896.748 1366.499 L 848.373 1366.499 L 848.373 1288.694 L 830.635 1288.694 z M 777.791 1348.626 L 742.8520000000001 1348.626 L 760.3220000000001 1308.492 L 777.791 1348.626 z M 792.841 1382.893 L 812.191 1382.893 L 769.996 1288.694 L 750.646 1288.694 L 708.453 1382.893 L 727.6669999999999 1382.893 L 735.7299999999999 1365.155 L 784.911 1365.155 L 792.841 1382.893 z M 695.385 1365.423 L 642.575 1365.423 L 642.575 1344.191 L 693.504 1344.191 L 693.504 1327.664 L 642.575 1327.664 L 642.575 1305.895 L 695.385 1305.895 L 695.385 1288.693 L 624.971 1288.693 C 624.971 1320.093 624.971 1351.5819999999999 624.971 1382.892 L 695.385 1382.892 L 695.385 1365.423 z M 599.54 1382.893 L 599.54 1288.9650000000001 L 581.938 1288.9650000000001 L 581.938 1328.6050000000002 L 535.71 1328.6050000000002 L 535.71 1288.9650000000001 L 517.974 1288.9650000000001 L 517.974 1382.893 L 535.71 1382.893 L 535.71 1344.998 L 581.938 1344.998 L 581.938 1382.893 L 599.54 1382.893 z" stroke-linecap="round" />
</g>
		<g transform="matrix(1 0 0 1 0 450.2)"  >
<path style="stroke: none; stroke-width: 1; stroke-dasharray: none; stroke-linecap: butt; stroke-dashoffset: 0; stroke-linejoin: miter; stroke-miterlimit: 4; fill: rgb(25,26,28); fill-rule: nonzero; opacity: 1;" vector-effect="non-scaling-stroke"  transform=" translate(-1000, -1450.2)" d="M 1224.404 1457.072 L 1196.893 1422.2079999999999 L 1188.3120000000001 1422.2079999999999 L 1188.3120000000001 1478.4329999999998 L 1198.8980000000001 1478.4329999999998 L 1198.8980000000001 1440.5219999999997 L 1228.4150000000002 1478.4329999999998 L 1234.9910000000002 1478.4329999999998 L 1234.9910000000002 1422.2079999999999 L 1224.4040000000002 1422.2079999999999 L 1224.4040000000002 1457.072 z M 1145.542 1430.791 C 1158.7749999999999 1430.791 1164.069 1441.377 1163.908 1450.8429999999998 C 1163.7469999999998 1460.0659999999998 1158.7749999999999 1470.012 1145.542 1470.012 C 1132.308 1470.012 1127.3349999999998 1460.146 1127.0929999999998 1450.922 C 1126.854 1441.458 1132.308 1430.791 1145.542 1430.791 z M 1145.542 1421.165 C 1126.1319999999998 1421.165 1116.668 1436.003 1116.668 1450.762 C 1116.668 1465.52 1125.812 1479.7169999999999 1145.542 1479.7169999999999 C 1165.271 1479.7169999999999 1174.175 1465.1999999999998 1174.336 1450.6819999999998 C 1174.496 1436.004 1164.872 1421.165 1145.542 1421.165 z M 1100.606 1464.076 C 1096.916 1467.767 1091.383 1469.772 1086.49 1469.772 C 1072.615 1469.772 1067.241 1460.067 1067.16 1450.763 C 1067.0810000000001 1441.378 1072.9360000000001 1431.273 1086.49 1431.273 C 1091.383 1431.273 1096.356 1432.9569999999999 1100.046 1436.567 L 1107.103 1429.749 C 1101.3300000000002 1424.055 1094.1100000000001 1421.166 1086.49 1421.166 C 1066.198 1421.166 1056.654 1436.086 1056.734 1450.763 C 1056.8129999999999 1465.36 1065.636 1479.7179999999998 1086.49 1479.7179999999998 C 1094.592 1479.7179999999998 1102.05 1477.071 1107.826 1471.3749999999998 L 1100.606 1464.076 z M 1042.999 1478.433 L 1042.999 1422.208 L 1032.493 1422.208 L 1032.493 1478.433 L 1042.999 1478.433 z M 974.243 1430.791 C 987.4770000000001 1430.791 992.7700000000001 1441.377 992.609 1450.8429999999998 C 992.45 1460.0659999999998 987.4770000000001 1470.012 974.243 1470.012 C 961.009 1470.012 956.0360000000001 1460.146 955.7950000000001 1450.922 C 955.556 1441.458 961.009 1430.791 974.243 1430.791 z M 974.243 1421.165 C 954.8330000000001 1421.165 945.37 1436.003 945.37 1450.762 C 945.37 1465.52 954.513 1479.7169999999999 974.243 1479.7169999999999 C 993.9730000000001 1479.7169999999999 1002.8760000000001 1465.1999999999998 1003.037 1450.6819999999998 C 1003.198 1436.004 993.573 1421.165 974.243 1421.165 z M 932.276 1429.267 C 926.501 1423.5720000000001 918.9609999999999 1420.685 911.423 1420.685 C 891.611 1420.685 881.746 1435.283 881.746 1451.0829999999999 C 881.746 1465.8419999999999 890.329 1479.7179999999998 911.423 1479.7179999999998 C 921.289 1479.7179999999998 928.266 1475.947 933.8 1469.6109999999999 L 933.8 1445.9499999999998 L 909.7379999999999 1445.9499999999998 L 909.7379999999999 1455.4139999999998 L 924.0949999999999 1455.4139999999998 L 924.0949999999999 1465.3599999999997 C 919.6829999999999 1468.8889999999997 915.8329999999999 1469.8519999999996 911.4229999999999 1469.8519999999996 C 897.4659999999999 1469.8519999999996 892.0919999999999 1460.3069999999996 892.0919999999999 1451.0829999999996 C 892.0919999999999 1439.5329999999997 899.3909999999998 1430.3899999999996 911.4229999999999 1430.3899999999996 C 916.3139999999999 1430.3899999999996 921.9299999999998 1432.3949999999998 925.6989999999998 1436.0039999999997 L 932.276 1429.267 z M 842.025 1430.791 C 855.2579999999999 1430.791 860.552 1441.377 860.391 1450.8429999999998 C 860.231 1460.0659999999998 855.2579999999999 1470.012 842.025 1470.012 C 828.79 1470.012 823.817 1460.146 823.576 1450.922 C 823.336 1441.458 828.789 1430.791 842.025 1430.791 z M 842.025 1421.165 C 822.614 1421.165 813.15 1436.003 813.15 1450.762 C 813.15 1465.52 822.293 1479.7169999999999 842.025 1479.7169999999999 C 861.754 1479.7169999999999 870.658 1465.1999999999998 870.818 1450.6819999999998 C 870.978 1436.004 861.354 1421.165 842.025 1421.165 z M 765.005 1422.208 L 765.005 1478.433 L 804.467 1478.433 L 804.467 1468.649 L 775.592 1468.649 L 775.592 1422.2079999999999 L 765.005 1422.2079999999999 z" stroke-linecap="round" />
</g>
</g>
</g>
<g transform="matrix(12.8 0 0 1.98 540 994.91)" id="0036cd50-9636-4547-9f7b-545f39cde675"  >
<rect style="stroke: rgb(0,0,0); stroke-width: 0; stroke-dasharray: none; stroke-linecap: butt; stroke-dashoffset: 0; stroke-linejoin: miter; stroke-miterlimit: 4; fill: rgb(255,255,255); fill-rule: nonzero; opacity: 1;" vector-effect="non-scaling-stroke"  x="-37.4585" y="-19.4165" rx="0" ry="0" width="74.917" height="38.833" />
</g>
</svg>